<svg width="3192" height="948" viewBox="0 0 3192 948" fill="none" xmlns="http://www.w3.org/2000/svg">
<path d="M622.225 794.783V629.432C617.963 619.688 608.22 613.293 597.259 613.293H443.197C432.54 613.293 422.188 611.77 412.14 608.421C376.517 598.676 350.028 569.139 343.939 532.597C342.417 525.898 341.808 518.894 341.808 511.89V436.066C341.808 429.062 342.417 422.363 343.939 415.359C349.724 378.818 376.517 349.28 412.14 339.536C422.188 336.186 432.845 334.663 443.197 334.663H597.259C608.22 334.663 617.963 328.269 622.225 318.524V154.087C622.225 115.414 645.669 81.004 681.597 66.6918C687.686 63.0377 694.08 59.9926 700.779 57.5564C630.75 19.4923 551.893 -0.301052 472.121 0.00346117C209.668 0.612487 -3.46186 217.73 0.191792 480.221C3.84544 742.102 219.411 951.607 481.255 947.953C557.982 946.735 633.186 927.246 700.474 890.704C694.994 888.573 689.818 886.441 684.946 883.396C647.496 869.997 622.53 834.674 622.225 794.783Z" fill="#2CADA3"/>
<path d="M765.38 708.935C765.38 645.882 815.329 601.061 885.79 601.061C933.46 601.061 969.734 622.332 983.978 658.796L927.192 687.854C917.126 668.102 902.503 659.556 885.41 659.556C859.96 659.556 839.829 677.409 839.829 709.125C839.829 741.602 859.96 759.454 885.41 759.454C902.503 759.454 917.126 750.908 927.192 731.156L983.978 760.214C969.734 796.489 933.27 817.95 885.79 817.95C815.329 817.76 765.38 772.939 765.38 708.935Z" fill="#1B2E32"/>
<path d="M996.322 708.935C996.322 645.882 1046.27 601.061 1114.64 601.061C1183.96 601.061 1232.96 645.882 1232.96 708.935C1232.96 772.369 1183.77 817.57 1114.64 817.57C1046.27 817.76 996.322 772.559 996.322 708.935ZM1158.89 708.935C1158.89 677.219 1139.9 659.366 1114.83 659.366C1090.14 659.366 1070.77 677.219 1070.77 708.935C1070.77 741.032 1090.14 759.264 1114.83 759.264C1139.9 759.264 1158.89 741.222 1158.89 708.935Z" fill="#1B2E32"/>
<path d="M1625.15 694.312V814.341H1551.65V706.466C1551.65 676.269 1539.31 663.544 1519.93 663.544C1498.66 663.544 1483.09 677.788 1483.09 710.455V814.531H1409.59V706.656C1409.59 676.459 1397.63 663.734 1377.87 663.734C1356.22 663.734 1340.65 677.978 1340.65 710.645V814.721H1267.15V604.479H1337.23V626.51C1353.18 609.417 1375.22 601.061 1399.9 601.061C1428.58 601.061 1452.89 611.506 1467.71 633.917C1484.42 613.026 1510.25 601.061 1540.45 601.061C1589.07 601.061 1625.15 629.359 1625.15 694.312Z" fill="#1B2E32"/>
<path d="M2029.49 694.312V814.341H1955.99V706.466C1955.99 676.269 1943.65 663.544 1924.27 663.544C1903 663.544 1887.43 677.788 1887.43 710.455V814.531H1813.93V706.656C1813.93 676.459 1801.97 663.734 1782.21 663.734C1760.56 663.734 1744.99 677.978 1744.99 710.645V814.721H1671.49V604.479H1741.57V626.51C1757.52 609.417 1779.56 601.061 1804.24 601.061C1832.92 601.061 1857.23 611.506 1872.05 633.917C1888.76 613.026 1914.59 601.061 1944.79 601.061C1993.41 601.061 2029.49 629.359 2029.49 694.312Z" fill="#1B2E32"/>
<path d="M2065.77 708.935C2065.77 645.882 2115.72 601.061 2184.09 601.061C2253.41 601.061 2302.41 645.882 2302.41 708.935C2302.41 772.369 2253.22 817.57 2184.09 817.57C2115.72 817.76 2065.77 772.559 2065.77 708.935ZM2228.34 708.935C2228.34 677.219 2209.35 659.366 2184.28 659.366C2159.59 659.366 2140.22 677.219 2140.22 708.935C2140.22 741.032 2159.59 759.264 2184.28 759.264C2209.35 759.264 2228.34 741.222 2228.34 708.935Z" fill="#1B2E32"/>
<path d="M2559.37 527.181V814.341H2489.29V793.45C2475.43 810.163 2454.91 817.76 2427.76 817.76C2370.4 817.76 2324.44 775.977 2324.44 709.125C2324.44 642.653 2370.4 601.25 2427.76 601.25C2452.07 601.25 2471.82 608.277 2485.87 622.901V527.371H2559.37V527.181ZM2487.01 708.935C2487.01 677.218 2468.02 659.366 2443.33 659.366C2418.26 659.366 2399.27 677.218 2399.27 708.935C2399.27 741.032 2418.26 759.264 2443.33 759.264C2468.21 759.264 2487.01 741.222 2487.01 708.935Z" fill="#1B2E32"/>
<path d="M2598.49 542.185C2598.49 520.154 2616.35 503.061 2643.32 503.061C2670.28 503.061 2688.14 519.014 2688.14 541.045C2688.14 564.215 2670.28 581.308 2643.32 581.308C2616.35 581.308 2598.49 564.405 2598.49 542.185ZM2606.66 604.479H2680.16V814.151H2606.66V604.479Z" fill="#1B2E32"/>
<path d="M2807.78 612.265H2857.73V667.152H2809.68V814.151H2736.18V667.152H2705.61V612.265H2736.18V606.758C2736.18 556.429 2767.52 523.572 2823.55 523.572C2841.4 523.572 2860.39 526.991 2872.36 534.398L2854.13 586.246C2847.86 582.827 2839.88 579.979 2832.09 579.979C2816.71 579.979 2807.78 588.905 2807.78 607.517V612.265V612.265Z" fill="#1B2E32"/>
<path d="M3109.57 604.478L3018.98 822.697C2996.95 876.824 2965.99 892.778 2924.59 892.778C2902.56 892.778 2877.68 885.371 2863.81 873.785L2889.26 822.317C2897.81 830.104 2910.15 834.662 2921.74 834.662C2935.98 834.662 2944.15 829.154 2950.42 816.809L2860.58 604.478H2935.98L2987.45 732.485L3039.3 604.478H3109.57Z" fill="#1B2E32"/>
<path d="M3103.49 774.078C3103.49 747.679 3122.86 730.776 3147.55 730.776C3172.62 730.776 3191.61 747.869 3191.61 774.078C3191.61 799.527 3172.62 817.76 3147.55 817.76C3122.86 817.76 3103.49 799.527 3103.49 774.078Z" fill="#1B2E32"/>
</svg>
